<?xml version="1.0" standalone="no"?>
<!DOCTYPE svg PUBLIC "-//W3C//DTD SVG 20010904//EN"
 "http://www.w3.org/TR/2001/REC-SVG-20010904/DTD/svg10.dtd">
<svg version="1.0" xmlns="http://www.w3.org/2000/svg"
 width="659.000000pt" height="252.000000pt" viewBox="0 0 659.000000 252.000000"
 preserveAspectRatio="xMidYMid meet">

<g transform="translate(0.000000,252.000000) scale(0.100000,-0.100000)"
fill="#000000" stroke="none">
<path d="M2800 2064 c-15 -38 -13 -40 15 -14 29 27 32 40 10 40 -9 0 -20 -12
-25 -26z"/>
<path d="M620 1908 c-24 -57 -50 -111 -58 -120 -14 -17 -13 -18 19 -18 24 0
30 3 20 9 -12 8 -12 14 -1 40 11 28 17 31 56 31 39 0 46 -3 55 -27 5 -14 8
-32 5 -40 -4 -9 6 -13 35 -13 40 0 41 0 22 18 -11 9 -37 60 -58 112 -21 52
-41 99 -45 103 -4 4 -26 -39 -50 -95z m70 -35 c0 -8 -14 -13 -36 -13 -30 0
-35 3 -29 18 4 9 12 30 18 46 l10 29 18 -34 c10 -19 18 -40 19 -46z"/>
<path d="M885 2000 c-89 -37 -99 -181 -15 -225 47 -24 85 -19 122 16 29 28 30
29 4 10 -49 -36 -107 -27 -131 20 -32 60 -12 143 39 167 35 18 78 2 95 -35 16
-34 22 -25 14 21 -3 22 -9 33 -13 26 -6 -9 -13 -9 -28 -1 -24 13 -58 13 -87 1z"/>
<path d="M1058 1998 c10 -12 12 -46 10 -122 l-3 -106 35 1 c19 0 29 3 23 6
-15 6 -18 103 -3 103 5 0 28 -25 51 -55 35 -47 46 -55 73 -54 23 0 27 2 12 8
-10 4 -33 27 -51 51 l-33 44 29 27 c34 32 36 52 9 79 -15 15 -33 20 -74 20
-30 0 -63 3 -73 7 -16 6 -16 5 -5 -9z m116 -30 c9 -12 16 -26 16 -30 0 -16
-40 -48 -60 -48 -17 0 -20 7 -20 50 0 46 2 50 24 50 14 0 32 -10 40 -22z"/>
<path d="M1301 1993 c6 -6 9 -58 7 -117 l-3 -106 83 0 c45 0 82 4 82 9 0 5 3
18 6 28 6 15 3 14 -15 -4 -16 -17 -33 -23 -66 -23 l-45 0 0 50 0 50 36 0 c22
0 41 -6 48 -15 9 -13 11 -8 11 25 0 33 -2 38 -11 25 -7 -9 -26 -15 -48 -15
l-36 0 0 45 0 45 44 0 c35 0 48 -5 60 -22 11 -15 16 -17 16 -8 0 31 -17 38
-97 41 -62 3 -79 1 -72 -8z"/>
<path d="M1520 1996 c15 -15 13 -213 -2 -219 -7 -3 21 -6 62 -6 58 -1 82 4
107 19 42 25 60 82 44 133 -20 58 -43 71 -137 77 -52 3 -80 2 -74 -4z m130
-21 c20 -10 33 -28 41 -54 22 -73 -21 -141 -91 -141 l-30 0 0 105 0 105 25 0
c15 0 39 -7 55 -15z"/>
<path d="M1782 1993 c5 -6 8 -58 6 -117 l-3 -106 35 1 c19 0 29 3 23 6 -16 6
-18 204 -3 219 6 6 -5 9 -30 9 -28 0 -36 -3 -28 -12z"/>
<path d="M2136 1895 c-27 -63 -53 -116 -60 -119 -6 -2 5 -5 24 -5 24 0 31 2
21 8 -12 8 -12 14 -1 40 11 28 17 31 56 31 47 0 71 -24 61 -61 -4 -16 1 -19
36 -19 35 0 38 2 24 13 -9 6 -35 57 -58 112 -23 55 -44 103 -48 107 -4 5 -29
-44 -55 -107z m65 5 l18 -40 -40 0 c-23 0 -39 3 -37 8 2 4 10 24 17 44 17 43
18 42 42 -12z"/>
<path d="M2400 1997 c-33 -17 -70 -74 -70 -109 0 -71 51 -128 115 -128 34 0
81 25 89 47 6 14 2 13 -17 -5 -30 -28 -85 -29 -115 -2 -29 28 -38 85 -21 134
25 72 102 84 140 22 l19 -31 0 30 c0 17 -5 37 -10 45 -6 10 -10 11 -10 3 0 -9
-7 -10 -26 -3 -34 13 -64 12 -94 -3z"/>
<path d="M2580 1998 c0 -5 5 -8 10 -8 16 0 13 -207 -2 -213 -7 -3 5 -6 27 -6
30 -1 36 2 27 11 -18 18 -16 187 3 208 13 14 11 16 -25 15 -22 0 -40 -3 -40
-7z"/>
<path d="M2748 1994 c-81 -44 -74 -188 11 -223 71 -30 149 20 158 103 12 100
-83 167 -169 120z m99 -18 c25 -22 28 -30 28 -90 0 -54 -4 -69 -22 -87 -50
-50 -113 -14 -121 70 -5 59 10 104 41 119 33 16 43 14 74 -12z"/>
<path d="M2953 1990 c26 -21 27 -26 27 -109 0 -54 -5 -92 -12 -99 -9 -9 -5
-12 18 -12 19 0 25 3 16 9 -9 5 -12 31 -10 89 l3 82 75 -93 75 -92 3 105 c2
73 7 109 17 120 13 14 11 16 -21 16 -30 0 -33 -2 -19 -12 13 -10 15 -27 13
-88 l-3 -76 -69 85 c-40 50 -76 85 -86 85 -10 0 -27 3 -37 6 -11 3 -8 -2 10
-16z"/>
<path d="M3312 1993 c5 -6 8 -58 6 -117 l-3 -106 35 1 c19 0 29 3 23 6 -16 6
-18 204 -3 219 5 6 -5 9 -30 9 -28 0 -36 -3 -28 -12z"/>
<path d="M3418 1994 c20 -15 22 -24 22 -114 0 -69 -4 -100 -12 -103 -7 -3 3
-5 22 -5 19 0 29 2 23 5 -9 3 -13 31 -13 90 l0 85 78 -96 77 -96 3 112 c2 87
6 114 18 123 13 9 9 11 -20 11 -27 0 -33 -3 -24 -13 11 -13 17 -153 7 -153 -3
0 -35 36 -70 80 -35 44 -72 80 -81 80 -9 0 -25 3 -35 6 -14 4 -13 1 5 -12z"/>
<path d="M3701 1986 c-35 -37 -22 -69 45 -112 30 -19 58 -42 61 -50 17 -45
-81 -61 -103 -16 -19 38 -24 37 -24 -4 l0 -39 59 0 c65 0 101 21 101 59 0 32
-14 47 -72 81 -41 24 -53 37 -53 56 0 20 6 25 33 27 38 4 62 -12 62 -39 0 -11
4 -19 8 -19 4 0 6 15 4 34 -3 28 -9 35 -34 40 -50 10 -63 7 -87 -18z"/>
<path d="M4100 1998 c0 -5 5 -8 10 -8 16 0 13 -207 -2 -213 -7 -3 5 -6 27 -6
30 -1 36 2 27 11 -18 18 -16 187 3 208 13 14 11 16 -25 15 -22 0 -40 -3 -40
-7z"/>
<path d="M4440 1995 c4 -5 10 -51 12 -102 4 -107 13 -123 80 -130 37 -4 49 -1
72 19 26 22 28 31 33 113 3 50 9 95 13 100 5 6 -3 10 -21 10 -16 0 -29 -3 -29
-7 0 -5 5 -8 10 -8 6 0 10 -35 10 -85 0 -72 -3 -88 -20 -105 -22 -22 -79 -27
-98 -8 -14 14 -17 189 -2 204 6 6 -5 9 -30 9 -24 0 -35 -4 -30 -10z"/>
<path d="M4748 1994 c-37 -19 -58 -63 -58 -118 0 -36 6 -52 29 -78 26 -29 36
-33 79 -33 40 0 56 5 76 24 14 14 24 26 22 29 -2 2 -14 -6 -25 -17 -30 -30
-85 -28 -116 4 -21 20 -25 34 -25 79 0 70 29 109 80 109 24 0 40 -7 57 -27
l23 -27 0 37 c0 28 -3 34 -13 26 -8 -7 -18 -7 -27 -2 -22 14 -71 11 -102 -6z"/>
<path d="M4942 1993 c5 -6 8 -58 6 -117 l-3 -106 35 1 c19 0 29 3 23 6 -16 6
-18 204 -3 219 6 6 -5 9 -30 9 -28 0 -36 -3 -28 -12z"/>
<path d="M5120 2003 c-50 -20 -87 -90 -75 -143 21 -96 136 -130 200 -60 41 45
36 137 -9 179 -24 23 -87 36 -116 24z m93 -35 c25 -29 24 -137 -1 -169 -25
-30 -78 -31 -103 -1 -25 31 -32 90 -17 137 21 64 80 80 121 33z"/>
<path d="M5308 1993 c20 -14 22 -23 22 -113 0 -69 -4 -100 -12 -103 -7 -3 -2
-6 12 -6 24 -1 25 1 22 57 -7 126 -6 127 78 23 l75 -93 3 113 c1 62 7 118 11
123 6 7 -1 11 -20 12 -22 1 -27 -2 -19 -12 6 -7 10 -44 8 -85 l-3 -72 -64 79
c-36 43 -65 79 -65 80 -1 1 -17 4 -36 7 -34 6 -35 6 -12 -10z"/>
<path d="M5635 1923 c-20 -49 -45 -103 -56 -120 l-18 -33 32 0 c23 0 28 3 18
9 -12 8 -12 14 -1 40 11 28 17 31 56 31 39 0 46 -3 55 -27 5 -14 8 -32 5 -40
-4 -9 6 -13 35 -13 40 0 41 1 22 18 -11 9 -39 63 -62 120 -24 56 -44 102 -46
102 -1 0 -19 -39 -40 -87z m59 -40 c7 -21 4 -23 -29 -23 -31 0 -36 3 -30 18 4
9 12 30 17 46 l11 29 12 -24 c7 -13 16 -34 19 -46z"/>
<path d="M5836 1989 c18 -20 20 -189 2 -207 -9 -9 7 -12 74 -12 l86 0 11 31
11 32 -25 -27 c-21 -23 -32 -27 -68 -24 l-42 3 -3 99 c-2 80 0 100 13 110 12
9 7 11 -29 11 -40 0 -43 -2 -30 -16z"/>
<path d="M1880 1973 l0 -27 16 22 c8 12 26 22 40 22 24 0 24 0 24 -104 0 -74
-4 -106 -12 -109 -7 -3 3 -6 22 -6 l35 -1 -3 110 -3 110 25 0 c14 0 31 -9 40
-22 l16 -22 0 27 0 27 -100 0 -100 0 0 -27z"/>
<path d="M3870 1973 l0 -27 16 22 c8 12 26 22 40 22 24 0 24 0 24 -104 0 -74
-4 -106 -12 -109 -7 -3 3 -6 22 -6 l35 -1 -3 110 -3 110 25 0 c14 0 31 -9 40
-22 l16 -22 0 27 0 27 -100 0 -100 0 0 -27z"/>
<path d="M4211 1973 c0 -27 1 -27 9 -5 7 16 18 22 40 22 l30 0 0 -104 c0 -74
-4 -106 -12 -109 -7 -3 5 -6 26 -6 31 -1 37 2 28 11 -8 8 -12 47 -12 110 l0
98 30 0 c19 0 33 -7 40 -21 14 -26 21 -21 13 9 -5 21 -11 22 -99 22 l-94 0 1
-27z"/>
<path d="M1666 1537 c-84 -200 -113 -257 -139 -267 -16 -6 -3 -9 48 -9 52 0
64 3 48 9 -28 11 -29 32 -3 88 l19 42 75 0 76 0 20 -40 c26 -51 26 -78 -2 -90
-16 -6 4 -9 67 -9 69 1 84 3 64 10 -32 12 -32 13 -123 228 -40 96 -77 176 -82
178 -5 1 -36 -61 -68 -140z m87 -35 c15 -35 27 -68 27 -73 0 -5 -30 -9 -66 -9
-49 0 -65 3 -61 13 39 99 62 146 67 140 4 -5 19 -36 33 -71z"/>
<path d="M2825 1648 c-112 -267 -149 -346 -171 -365 l-25 -23 68 1 c58 0 64 2
41 11 -33 12 -34 22 -8 82 l19 46 80 0 79 0 16 -42 c23 -64 23 -70 -4 -85 -22
-11 -15 -13 65 -12 64 0 83 3 68 9 -32 13 -48 44 -128 239 -38 94 -74 171 -78
171 -4 0 -14 -15 -22 -32z m44 -155 l30 -73 -70 0 c-39 0 -69 4 -67 8 45 110
64 150 69 144 4 -4 21 -40 38 -79z"/>
<path d="M3345 1667 c-44 -20 -102 -90 -116 -139 -38 -143 53 -277 189 -278
63 0 112 21 147 62 41 48 29 54 -20 9 -40 -37 -49 -41 -97 -41 -63 0 -109 25
-135 72 -27 50 -25 180 4 234 54 102 195 97 243 -9 l20 -42 0 73 c0 41 -4 72
-10 72 -5 0 -10 -5 -10 -11 0 -7 -11 -9 -32 -4 -67 14 -153 15 -183 2z"/>
<path d="M3750 1484 c-66 -153 -89 -198 -109 -209 -24 -13 -22 -14 44 -14 64
-1 68 0 45 12 -27 15 -27 21 -4 85 l16 42 79 0 80 0 19 -46 c26 -59 25 -73 -2
-84 -17 -6 1 -9 62 -9 79 0 83 1 59 14 -22 12 -43 54 -109 210 -46 107 -86
195 -90 195 -4 0 -44 -88 -90 -196z m110 16 c16 -40 30 -74 30 -76 0 -2 -29
-4 -65 -4 -36 0 -65 4 -65 10 0 13 62 151 66 147 2 -2 17 -36 34 -77z"/>
<path d="M5275 1543 c-92 -217 -113 -259 -138 -271 -18 -9 -9 -11 48 -11 49 0
64 3 49 9 -34 13 -35 24 -13 79 l22 51 79 0 79 0 19 -46 c26 -59 25 -73 -2
-84 -17 -6 1 -9 62 -9 70 0 81 2 62 12 -28 13 -47 50 -132 255 -35 83 -66 152
-70 152 -4 0 -33 -62 -65 -137z m84 -42 c17 -40 31 -75 31 -77 0 -2 -31 -4
-69 -4 l-70 0 26 58 c14 31 29 68 34 81 5 13 11 22 13 20 2 -2 18 -37 35 -78z"/>
<path d="M575 1663 c43 -12 45 -18 45 -198 0 -180 -2 -186 -45 -198 -11 -3 46
-5 126 -4 140 2 147 3 186 29 56 37 84 86 90 158 5 51 2 67 -21 114 -44 90
-70 101 -251 103 -82 1 -141 -1 -130 -4z m244 -33 c60 -30 86 -80 86 -165 0
-56 -5 -78 -24 -108 -27 -44 -85 -77 -135 -77 -68 0 -66 -6 -66 185 0 129 3
175 13 178 28 12 90 6 126 -13z"/>
<path d="M1040 1661 c33 -9 38 -33 38 -196 0 -163 -5 -187 -38 -196 -14 -4 48
-7 137 -8 l161 -1 16 47 c9 26 16 49 16 51 0 3 -17 -13 -38 -36 l-39 -42 -75
0 c-88 0 -88 0 -88 113 l0 67 70 0 c70 0 71 0 85 -32 14 -32 14 -31 14 47 0
78 0 79 -14 48 -14 -33 -15 -33 -85 -33 l-70 0 0 80 0 80 78 0 c86 0 100 -6
118 -47 12 -28 12 -27 13 20 l1 47 -162 -1 c-90 -1 -152 -4 -138 -8z"/>
<path d="M2000 1661 l25 -7 0 -189 0 -189 -25 -7 c-14 -4 48 -7 137 -8 l161
-1 17 51 c21 61 15 72 -13 25 -16 -26 -31 -38 -64 -46 -51 -14 -127 -8 -139
11 -12 19 -11 302 0 333 7 16 20 26 38 29 15 2 -15 4 -67 5 -52 0 -84 -3 -70
-7z"/>
<path d="M2311 1623 c0 -37 2 -43 9 -27 13 33 50 54 92 54 l38 0 0 -179 c0
-186 -2 -193 -45 -204 -11 -2 23 -5 75 -5 52 0 86 3 75 5 -43 11 -45 18 -45
204 l0 179 34 0 c52 0 85 -16 92 -45 3 -14 11 -25 16 -25 6 0 7 7 4 16 -3 9
-6 29 -6 45 l0 29 -170 0 -170 0 1 -47z"/>
<path d="M4100 1663 c14 -3 28 -10 32 -17 4 -6 8 -88 8 -182 0 -179 -2 -186
-45 -197 -11 -2 55 -5 146 -6 l165 -1 17 52 c9 29 15 54 13 55 -2 2 -13 -11
-25 -30 -25 -41 -35 -46 -111 -54 -100 -10 -100 -10 -100 186 0 179 1 185 50
194 14 2 -20 4 -75 4 -55 0 -89 -2 -75 -4z"/>
<path d="M4485 1663 c43 -11 45 -18 45 -192 0 -175 -4 -194 -45 -204 -11 -3
23 -5 75 -5 76 0 88 2 62 9 l-32 10 2 187 3 187 30 6 c17 4 -13 7 -65 7 -52 0
-86 -3 -75 -5z"/>
<path d="M4695 1662 l30 -7 3 -179 c3 -187 0 -201 -41 -209 -12 -2 34 -5 103
-6 143 -1 187 8 235 50 47 42 69 104 62 179 -6 71 -34 120 -85 152 -34 21 -50
23 -187 25 -82 1 -136 -1 -120 -5z m255 -42 c91 -65 92 -244 1 -310 -35 -24
-95 -36 -135 -26 l-26 6 0 174 c0 130 3 176 13 180 29 13 115 -1 147 -24z"/>
<path d="M5595 1663 c43 -11 45 -18 45 -198 0 -180 -2 -187 -45 -198 -11 -2
36 -5 104 -6 146 -1 192 10 242 60 76 76 77 206 4 288 -46 51 -88 61 -241 60
-71 -1 -120 -4 -109 -6z m244 -32 c45 -24 66 -53 82 -116 14 -55 0 -136 -30
-172 -29 -35 -83 -63 -123 -63 -70 0 -68 -6 -68 184 0 95 3 176 7 179 13 14
95 6 132 -12z"/>
<path d="M3179 1115 c-31 -17 -59 -71 -59 -112 0 -38 34 -91 68 -104 48 -19
132 9 132 44 0 6 -10 1 -23 -11 -34 -32 -89 -30 -116 4 -26 33 -28 109 -5 142
35 50 99 48 128 -5 l15 -28 1 37 c0 28 -4 37 -17 37 -10 1 -36 3 -58 6 -25 3
-50 0 -66 -10z"/>
<path d="M3700 1024 c-24 -58 -51 -109 -59 -114 -12 -7 -7 -9 19 -9 19 0 30 3
23 5 -8 4 -9 13 -1 35 9 27 14 29 58 29 43 0 48 -3 54 -25 4 -14 4 -30 1 -35
-4 -6 10 -10 32 -10 21 0 33 4 26 8 -7 4 -31 53 -53 107 -23 55 -45 103 -49
107 -4 4 -27 -40 -51 -98z m56 11 c19 -46 19 -45 -20 -45 l-35 0 17 40 c9 22
18 40 20 40 2 0 10 -16 18 -35z"/>
<path d="M5815 1106 c-14 -14 -25 -29 -25 -34 0 -19 43 -63 80 -82 21 -10 40
-27 44 -36 18 -48 -77 -61 -101 -14 l-13 25 0 -31 c0 -30 3 -32 45 -38 49 -8
78 3 95 35 17 31 3 57 -55 93 -60 39 -68 48 -59 70 4 10 18 16 41 16 29 0 36
-5 48 -32 l14 -33 1 40 0 40 -45 3 c-37 2 -50 -2 -70 -22z"/>
<path d="M635 1010 c0 -91 3 -110 15 -110 12 0 15 15 13 87 l-2 88 42 -87 c23
-49 44 -88 47 -88 3 0 24 39 47 88 l41 87 1 -82 c1 -56 -3 -83 -11 -86 -7 -3
5 -6 26 -6 31 -1 37 2 28 11 -17 17 -16 195 1 201 6 3 -1 6 -16 6 -26 1 -32
-6 -65 -79 -20 -44 -39 -80 -43 -80 -3 0 -23 36 -43 80 -30 65 -40 80 -59 80
-21 0 -22 -3 -22 -110z"/>
<path d="M1228 1108 c7 -7 12 -44 12 -94 0 -77 2 -84 26 -103 15 -12 41 -21
59 -21 18 0 44 9 59 21 24 19 26 26 26 103 0 50 5 87 12 94 9 9 5 12 -17 11
-17 0 -24 -3 -17 -6 16 -6 16 -140 -1 -173 -10 -20 -21 -26 -54 -28 -56 -4
-65 15 -61 124 l3 84 -29 0 c-23 0 -27 -3 -18 -12z"/>
<path d="M1768 1108 c7 -7 12 -44 12 -98 0 -54 -5 -91 -12 -98 -9 -9 6 -12 70
-12 79 0 83 1 92 26 15 38 12 40 -11 10 -18 -23 -28 -27 -63 -24 l-41 3 -3 94
c-2 69 1 97 10 103 8 5 -2 8 -26 8 -31 0 -37 -3 -28 -12z"/>
<path d="M2220 1098 c1 -21 2 -21 11 -5 5 9 21 17 35 17 l25 0 -3 -105 -3
-105 25 0 25 0 -3 105 -3 105 25 0 c14 0 31 -9 40 -22 16 -23 21 -13 10 16 -5
13 -23 16 -95 16 -86 0 -89 -1 -89 -22z"/>
<path d="M2740 1101 c5 -11 10 -52 10 -91 0 -39 -5 -80 -10 -91 -9 -17 -7 -19
17 -19 l28 0 0 110 0 110 -28 0 c-24 0 -26 -2 -17 -19z"/>
<path d="M4188 1113 c8 -3 12 -34 12 -103 0 -69 -4 -100 -12 -103 -7 -3 -2 -6
12 -6 l25 -1 -5 85 c-3 47 -3 85 0 85 3 0 21 -37 41 -81 19 -44 39 -81 45 -81
5 0 25 36 44 81 19 44 38 81 43 81 11 0 8 -129 -3 -151 -9 -17 -7 -19 17 -19
l28 0 0 110 c0 105 -1 110 -21 110 -17 0 -29 -18 -60 -87 l-40 -87 -39 87
c-37 82 -41 87 -70 86 -16 0 -24 -3 -17 -6z"/>
<path d="M4785 1010 l0 -110 25 0 c24 0 25 2 22 50 -4 50 -4 50 26 50 44 0 62
9 73 37 9 25 -2 60 -25 75 -6 4 -36 8 -66 8 l-55 0 0 -110z m99 78 c9 -12 16
-28 16 -35 0 -18 -29 -43 -51 -43 -16 0 -19 7 -19 50 0 43 3 50 19 50 11 0 27
-10 35 -22z"/>
<path d="M5270 1026 c3 -55 11 -100 19 -110 28 -33 126 -28 148 8 4 6 10 53
13 104 4 77 3 92 -10 92 -12 0 -14 -15 -12 -89 3 -71 0 -91 -13 -105 -21 -20
-78 -21 -95 -1 -19 22 -26 161 -10 180 11 13 8 15 -16 15 l-29 0 5 -94z"/>
<path d="M430 785 l0 -25 2850 0 2850 0 0 25 0 25 -2850 0 -2850 0 0 -25z"/>
<path d="M1957 673 c-10 -9 -9 -23 2 -23 5 0 11 7 15 15 5 15 -5 20 -17 8z"/>
<path d="M5370 662 c0 -11 48 -13 55 -2 4 6 -7 10 -24 10 -17 0 -31 -4 -31 -8z"/>
<path d="M820 590 c0 -56 3 -70 15 -70 9 0 15 9 15 24 0 45 37 45 60 0 7 -13
22 -24 32 -24 17 0 17 1 2 25 -15 22 -15 26 0 40 19 19 21 46 4 63 -7 7 -38
12 -70 12 l-58 0 0 -70z m105 30 c0 -10 -12 -16 -37 -18 -33 -3 -38 0 -38 18
0 18 5 21 38 18 25 -2 37 -8 37 -18z"/>
<path d="M2276 644 c-56 -55 -3 -151 68 -124 47 18 61 85 26 120 -24 24 -72
26 -94 4z m61 -12 c23 -15 21 -77 -3 -86 -36 -14 -62 52 -32 82 14 14 19 14
35 4z"/>
<path d="M2435 647 c-27 -21 -10 -41 19 -22 23 15 56 11 56 -7 0 -5 -14 -17
-32 -26 -40 -22 -68 -48 -68 -64 0 -9 21 -13 70 -13 56 0 70 3 70 15 0 12 -10
14 -46 11 -52 -4 -53 9 -4 29 34 14 49 52 30 75 -16 19 -70 19 -95 2z"/>
<path d="M2597 649 c-28 -16 -10 -28 23 -16 22 8 33 8 41 0 15 -15 3 -33 -22
-33 -29 0 -23 -18 9 -22 36 -4 36 -32 0 -36 -15 -2 -36 1 -47 7 -14 8 -20 7
-25 -4 -3 -10 6 -18 32 -25 62 -19 116 13 97 58 -5 9 -7 25 -6 35 5 41 -56 63
-102 36z"/>
<path d="M2749 641 c-49 -39 -18 -131 45 -131 30 0 66 27 66 50 0 27 -44 54
-75 46 -30 -8 -33 9 -5 24 14 8 26 8 41 -1 17 -9 23 -8 30 2 18 30 -67 39
-102 10z m76 -81 c0 -18 -43 -26 -57 -12 -16 16 2 33 30 30 16 -2 27 -9 27
-18z"/>
<path d="M2884 631 c2 -38 24 -65 42 -50 18 15 56 1 52 -19 -4 -20 -53 -29
-72 -13 -12 10 -26 5 -26 -9 0 -11 48 -30 75 -30 30 0 55 25 55 55 0 28 -26
45 -69 45 -17 0 -31 5 -31 10 0 6 20 10 45 10 33 0 45 4 45 15 0 12 -13 15
-59 15 -58 0 -59 0 -57 -29z"/>
<path d="M3040 626 c0 -39 17 -57 45 -46 21 8 55 -4 55 -20 0 -5 -9 -14 -21
-20 -16 -9 -26 -8 -44 4 -19 12 -25 13 -34 2 -8 -10 -5 -16 15 -24 54 -25 114
-4 114 41 0 23 -45 50 -75 45 -17 -4 -25 -1 -25 8 0 10 14 14 45 14 33 0 45 4
45 15 0 12 -13 15 -60 15 l-60 0 0 -34z"/>
<path d="M3622 647 c-21 -12 -22 -15 -8 -26 11 -9 16 -10 16 -2 0 17 51 26 61
10 9 -16 -7 -39 -28 -39 -17 0 -63 -45 -63 -62 0 -10 18 -12 70 -10 45 2 70 8
70 15 0 8 -17 11 -52 8 -57 -3 -58 1 -7 27 42 22 57 46 43 70 -14 21 -71 26
-102 9z"/>
<path d="M3776 644 c-56 -55 -3 -151 68 -124 47 18 61 85 26 120 -24 24 -72
26 -94 4z m61 -12 c37 -24 14 -109 -24 -86 -22 13 -29 60 -12 80 13 16 19 17
36 6z"/>
<path d="M3935 647 c-10 -8 -15 -19 -11 -26 6 -9 12 -8 26 4 20 18 51 17 58
-2 2 -7 -11 -21 -29 -30 -40 -23 -69 -49 -69 -65 0 -9 21 -13 70 -13 56 0 70
3 70 15 0 12 -10 14 -46 11 -52 -4 -53 9 -4 29 34 14 49 52 30 75 -16 19 -70
19 -95 2z"/>
<path d="M4103 645 c-15 -17 -17 -39 -3 -30 6 4 10 -13 10 -44 0 -42 3 -51 18
-51 15 0 17 10 17 70 0 56 -3 70 -15 70 -8 -1 -21 -7 -27 -15z"/>
<path d="M4812 590 c-44 -58 -50 -70 -34 -70 11 0 22 6 25 13 2 6 26 38 51 70
36 44 43 57 29 57 -10 -1 -41 -30 -71 -70z"/>
<path d="M4991 634 c-50 -63 3 -139 78 -113 66 23 40 96 -31 86 -29 -4 -35 -2
-31 9 7 19 50 29 67 15 10 -8 16 -9 21 -1 11 18 -6 30 -45 30 -30 0 -43 -6
-59 -26z m76 -55 c17 -17 4 -39 -23 -39 -28 0 -44 28 -23 41 19 12 33 11 46
-2z"/>
<path d="M1043 633 l-53 -4 0 -55 0 -54 55 0 c30 0 55 5 55 10 0 6 -18 10 -40
10 -29 0 -40 4 -40 15 0 9 9 15 25 15 14 0 25 5 25 10 0 6 -11 10 -25 10 -14
0 -25 5 -25 10 0 6 18 10 40 10 29 0 40 4 40 15 0 8 -1 14 -2 13 -2 -1 -27 -3
-55 -5z"/>
<path d="M1138 629 c-41 -23 -10 -69 46 -69 14 0 26 -5 26 -11 0 -6 -16 -9
-37 -8 -47 4 -59 -12 -19 -22 31 -9 76 6 83 27 6 19 -27 44 -58 44 -16 0 -29
4 -29 9 0 14 23 19 47 10 13 -5 25 -4 28 1 4 6 -6 15 -20 20 -33 12 -45 12
-67 -1z"/>
<path d="M1285 628 c-26 -15 -35 -28 -35 -54 0 -50 79 -76 120 -39 28 25 25
60 -6 84 -30 24 -50 26 -79 9z m70 -38 c14 -43 -44 -67 -68 -29 -16 26 -1 49
32 49 21 0 32 -6 36 -20z"/>
<path d="M1695 615 c-30 -29 -31 -45 -7 -74 18 -23 59 -30 100 -17 35 11 16
25 -26 19 -28 -4 -42 -1 -52 12 -22 26 0 50 46 51 59 2 61 4 34 19 -37 21 -68
18 -95 -10z"/>
<path d="M1913 625 c-27 -19 -32 -75 -8 -95 19 -16 81 -16 100 0 19 16 20 74
2 89 -25 20 -71 23 -94 6z m72 -50 c0 -24 -5 -31 -24 -33 -32 -5 -54 23 -40
50 7 13 19 18 37 16 23 -2 27 -8 27 -33z"/>
<path d="M3468 633 l-48 -4 0 -54 0 -53 55 -4 c39 -2 55 1 55 10 0 7 -15 12
-40 12 -30 0 -40 4 -40 16 0 12 7 15 25 12 17 -4 25 -1 25 8 0 8 -11 14 -25
14 -14 0 -25 5 -25 10 0 6 18 10 40 10 29 0 40 4 40 15 0 8 -3 14 -7 13 -5 -1
-29 -3 -55 -5z"/>
<path d="M4463 633 l-53 -4 0 -55 0 -54 60 0 c33 0 60 4 60 10 0 6 -20 10 -45
10 -33 0 -45 4 -45 15 0 9 9 15 24 15 14 0 28 5 31 10 4 6 -7 10 -24 10 -17 0
-31 5 -31 10 0 6 18 10 40 10 29 0 40 4 40 15 0 8 -1 14 -2 13 -2 -1 -27 -3
-55 -5z"/>
<path d="M5505 615 c-28 -27 -30 -37 -14 -66 15 -29 52 -40 89 -28 51 18 53
91 3 110 -37 14 -52 11 -78 -16z m80 -40 c0 -26 -3 -30 -29 -30 -36 0 -56 26
-36 50 8 9 24 15 39 13 22 -2 26 -8 26 -33z"/>
<path d="M5658 629 c-39 -22 -10 -69 41 -69 12 0 21 -5 21 -11 0 -8 -14 -10
-41 -6 -46 6 -50 -12 -5 -24 40 -11 76 5 76 35 0 25 -16 36 -55 36 -13 0 -26
4 -29 9 -9 14 22 21 49 11 15 -6 26 -6 30 0 4 6 -6 15 -20 20 -33 12 -45 12
-67 -1z"/>
<path d="M1410 576 l0 -54 55 -4 c39 -2 55 1 55 10 0 7 -15 12 -40 12 l-40 0
0 45 c0 33 -4 45 -15 45 -11 0 -15 -13 -15 -54z"/>
<path d="M1532 583 c2 -40 7 -50 29 -60 16 -8 36 -9 55 -4 27 7 29 11 32 59 2
40 0 52 -12 52 -9 0 -12 -7 -9 -20 3 -11 2 -31 -1 -45 -5 -21 -12 -26 -34 -23
-24 3 -27 8 -30 46 -2 29 -8 42 -18 42 -12 0 -14 -11 -12 -47z"/>
<path d="M1830 575 c0 -42 3 -55 15 -55 12 0 15 13 15 55 0 42 -3 55 -15 55
-12 0 -15 -13 -15 -55z"/>
<path d="M2048 575 c-2 -45 0 -55 12 -55 12 0 15 9 12 38 l-4 37 39 -37 c56
-54 69 -51 65 17 -4 57 -22 78 -22 25 0 -16 -4 -30 -8 -30 -5 0 -21 14 -37 30
-42 44 -53 39 -57 -25z"/>
<path d="M3268 575 l-3 -55 51 0 c58 0 74 12 74 55 0 43 -16 55 -71 55 l-47 0
-4 -55z m87 0 c0 -25 -4 -30 -27 -33 -26 -3 -28 -1 -28 33 0 34 2 36 28 33 23
-3 27 -8 27 -33z"/>
<path d="M4235 575 c0 -43 3 -55 16 -55 12 0 15 8 12 33 -3 28 -2 30 9 14 38
-54 34 -53 54 -16 l19 34 3 -32 c2 -21 9 -33 18 -33 10 0 14 14 14 55 0 46 -3
55 -17 55 -10 0 -26 -14 -36 -31 -17 -30 -18 -31 -32 -13 -8 10 -15 25 -15 32
0 6 -10 12 -22 12 -21 0 -23 -5 -23 -55z"/>
<path d="M4550 575 c0 -42 3 -55 15 -55 10 0 15 11 15 35 l0 34 35 -34 c50
-51 63 -46 62 20 -1 38 -5 55 -14 55 -8 0 -13 -12 -13 -30 0 -16 -4 -30 -9
-30 -5 0 -21 14 -34 30 -40 47 -57 40 -57 -25z"/>
<path d="M5199 574 c-24 -50 -24 -54 -7 -54 10 0 18 7 18 15 0 10 10 15 30 15
20 0 30 -5 30 -15 0 -8 9 -15 20 -15 19 0 19 2 -7 55 -16 32 -34 55 -43 54 -8
0 -26 -24 -41 -55z m51 1 c0 -8 -4 -15 -10 -15 -5 0 -10 7 -10 15 0 8 5 15 10
15 6 0 10 -7 10 -15z"/>
<path d="M5330 575 c0 -42 3 -55 15 -55 11 0 15 11 15 37 l0 37 38 -37 c52
-51 62 -48 62 18 0 42 -3 55 -15 55 -10 0 -15 -10 -15 -32 l0 -32 -33 32 c-51
49 -67 43 -67 -23z"/>
</g>
</svg>
